<svg xmlns="http://www.w3.org/2000/svg" xmlns:svg="http://www.w3.org/2000/svg" xmlns:xlink="http://www.w3.org/1999/xlink" width="800" height="600"><g transform="translate(128,463.5)"><line x1="0" x2="16.892821346126986" y1="0" y2="-0.030770004035072518" style="stroke:#3333ff; stroke-width: 1.5" />
<line x1="16.892821346126986" x2="33.959541811873535" y1="-0.030770004035072518" y2="-0.06920867248503047" style="stroke:#3333ff; stroke-width: 1.5" />
<line x1="33.959541811873535" x2="50.147451044494524" y1="-0.06920867248503047" y2="-0.11408226146082147" style="stroke:#3333ff; stroke-width: 1.5" />
<line x1="50.147451044494524" x2="65.50056165030809" y1="-0.11408226146082147" y2="-0.1659067612758191" style="stroke:#3333ff; stroke-width: 1.5" />
<line x1="65.50056165030809" x2="80.10167986969276" y1="-0.1659067612758191" y2="-0.2253314895373936" style="stroke:#3333ff; stroke-width: 1.5" />
<line x1="80.10167986969276" x2="94.02339949514747" y1="-0.2253314895373936" y2="-0.2930394790974223" style="stroke:#3333ff; stroke-width: 1.5" />
<line x1="94.02339949514747" x2="107.32813607923603" y1="-0.2930394790974223" y2="-0.369741662747138" style="stroke:#3333ff; stroke-width: 1.5" />
<line x1="107.32813607923603" x2="120.06990594730446" y1="-0.369741662747138" y2="-0.4561765082793979" style="stroke:#3333ff; stroke-width: 1.5" />
<line x1="120.06990594730446" x2="132.29578869192176" y1="-0.4561765082793979" y2="-0.5531099523729808" style="stroke:#3333ff; stroke-width: 1.5" />
<line x1="132.29578869192176" x2="144.04708338176067" y1="-0.5531099523729808" y2="-0.6613353530334259" style="stroke:#3333ff; stroke-width: 1.5" />
<line x1="144.04708338176067" x2="155.36023086587076" y1="-0.6613353530334259" y2="-0.7816734460361738" style="stroke:#3333ff; stroke-width: 1.5" />
<line x1="155.36023086587076" x2="166.26755717653032" y1="-0.7816734460361738" y2="-0.9149723042694278" style="stroke:#3333ff; stroke-width: 1.5" />
<line x1="166.26755717653032" x2="176.7978784966944" y1="-0.9149723042694278" y2="-1.0621072998011405" style="stroke:#3333ff; stroke-width: 1.5" />
<line x1="176.7978784966944" x2="186.9769977765805" y1="-1.0621072998011405" y2="-1.2239810683987244" style="stroke:#3333ff; stroke-width: 1.5" />
<line x1="186.9769977765805" x2="196.828115664076" y1="-1.2239810683987244" y2="-1.4015234761502344" style="stroke:#3333ff; stroke-width: 1.5" />
<line x1="196.828115664076" x2="206.37217304517318" y1="-1.4015234761502344" y2="-1.595691588099901" style="stroke:#3333ff; stroke-width: 1.5" />
<line x1="206.37217304517318" x2="215.62813851892446" y1="-1.595691588099901" y2="-1.8074696387999523" style="stroke:#3333ff; stroke-width: 1.5" />
<line x1="215.62813851892446" x2="224.61325116161223" y1="-1.8074696387999523" y2="-2.037869004267678" style="stroke:#3333ff; stroke-width: 1.5" />
<line x1="224.61325116161223" x2="233.34322676586382" y1="-2.037869004267678" y2="-2.2879281761183026" style="stroke:#3333ff; stroke-width: 1.5" />
<line x1="233.34322676586382" x2="241.83243394342682" y1="-2.2879281761183026" y2="-2.558712736071171" style="stroke:#3333ff; stroke-width: 1.5" />
<line x1="241.83243394342682" x2="250.0940453254651" y1="-2.558712736071171" y2="-2.851315332676849" style="stroke:#3333ff; stroke-width: 1.5" />
<line x1="250.0940453254651" x2="258.14016796537703" y1="-2.851315332676849" y2="-3.166855659272923" style="stroke:#3333ff; stroke-width: 1.5" />
<line x1="258.14016796537703" x2="265.98195627093247" y1="-3.166855659272923" y2="-3.5064804314395728" style="stroke:#3333ff; stroke-width: 1.5" />
<line x1="265.98195627093247" x2="273.6297103288049" y1="-3.5064804314395728" y2="-3.871363368796687" style="stroke:#3333ff; stroke-width: 1.5" />
<line x1="273.6297103288049" x2="281.09296168560064" y1="-3.871363368796687" y2="-4.26270517359447" style="stroke:#3333ff; stroke-width: 1.5" />
<line x1="281.09296168560064" x2="288.38054861709924" y1="-4.26270517359447" y2="-4.681733513342096" style="stroke:#3333ff; stroke-width: 1.5" />
<line x1="288.38054861709924" x2="295.50068232715535" y1="-4.681733513342096" y2="-5.129703003662516" style="stroke:#3333ff; stroke-width: 1.5" />
<line x1="295.50068232715535" x2="302.46100534548333" y1="-5.129703003662516" y2="-5.607895189691289" style="stroke:#3333ff; stroke-width: 1.5" />
<line x1="302.46100534548333" x2="309.26864329840123" y1="-5.607895189691289" y2="-6.117618532283987" style="stroke:#3333ff; stroke-width: 1.5" />
<line x1="309.26864329840123" x2="315.9302508353668" y1="-6.117618532283987" y2="-6.6602083915641614" style="stroke:#3333ff; stroke-width: 1.5" />
<line x1="315.9302508353668" x2="322.4520525431716" y1="-6.6602083915641614" y2="-7.237027011518523" style="stroke:#3333ff; stroke-width: 1.5" />
<line x1="322.4520525431716" x2="328.83987948276314" y1="-7.237027011518523" y2="-7.849463504734575" style="stroke:#3333ff; stroke-width: 1.5" />
<line x1="328.83987948276314" x2="335.0992019742035" y1="-7.849463504734575" y2="-8.498933844974436" style="stroke:#3333ff; stroke-width: 1.5" />
<line x1="335.0992019742035" x2="341.23515889256237" y1="-8.498933844974436" y2="-9.186880847355047" style="stroke:#3333ff; stroke-width: 1.5" />
<line x1="341.23515889256237" x2="347.2525840912176" y1="-9.186880847355047" y2="-9.914774154464046" style="stroke:#3333ff; stroke-width: 1.5" />
<line x1="347.2525840912176" x2="353.1560303045632" y1="-9.914774154464046" y2="-10.684110232902471" style="stroke:#3333ff; stroke-width: 1.5" />
<line x1="353.1560303045632" x2="358.9497906051554" y1="-10.684110232902471" y2="-11.496412352652206" style="stroke:#3333ff; stroke-width: 1.5" />
<line x1="358.9497906051554" x2="364.63791797610406" y1="-11.496412352652206" y2="-12.353230585521462" style="stroke:#3333ff; stroke-width: 1.5" />
<line x1="364.63791797610406" x2="370.22424290476755" y1="-12.353230585521462" y2="-13.256141779770786" style="stroke:#3333ff; stroke-width: 1.5" />
<line x1="370.22424290476755" x2="375.7123895585497" y1="-13.256141779770786" y2="-14.2067495624692" style="stroke:#3333ff; stroke-width: 1.5" />
<line x1="375.7123895585497" x2="381.1057904042972" y1="-14.2067495624692" y2="-15.20668432523111" style="stroke:#3333ff; stroke-width: 1.5" />
<line x1="381.1057904042972" x2="386.40769961174277" y1="-15.20668432523111" y2="-16.257603222031385" style="stroke:#3333ff; stroke-width: 1.5" />
<line x1="386.40769961174277" x2="391.62120516141323" y1="-16.257603222031385" y2="-17.361190138698845" style="stroke:#3333ff; stroke-width: 1.5" />
<line x1="391.62120516141323" x2="396.7492401031695" y1="-17.361190138698845" y2="-18.519155696577492" style="stroke:#3333ff; stroke-width: 1.5" />
<line x1="396.7492401031695" x2="401.7945928684269" y1="-18.519155696577492" y2="-19.733237258530824" style="stroke:#3333ff; stroke-width: 1.5" />
<line x1="401.7945928684269" x2="406.7599165792038" y1="-19.733237258530824" y2="-21.00519889730789" style="stroke:#3333ff; stroke-width: 1.5" />
<line x1="406.7599165792038" x2="411.6477377252669" y1="-21.00519889730789" y2="-22.336831389423654" style="stroke:#3333ff; stroke-width: 1.5" />
<line x1="411.6477377252669" x2="416.46046422751374" y1="-22.336831389423654" y2="-23.729952232020402" style="stroke:#3333ff; stroke-width: 1.5" />
<line x1="416.46046422751374" x2="421.2003926152352" y1="-23.729952232020402" y2="-25.186405585522355" style="stroke:#3333ff; stroke-width: 1.5" />
<line x1="421.2003926152352" x2="425.8697150980717" y1="-25.186405585522355" y2="-26.708062350980306" style="stroke:#3333ff; stroke-width: 1.5" />
<line x1="425.8697150980717" x2="430.47052549378486" y1="-26.708062350980306" y2="-28.296820055382625" style="stroke:#3333ff; stroke-width: 1.5" />
<line x1="430.47052549378486" x2="435.0048252408369" y1="-28.296820055382625" y2="-29.954602903222145" style="stroke:#3333ff; stroke-width: 1.5" />
<line x1="435.0048252408369" x2="439.47452892321957" y1="-29.954602903222145" y2="-31.68336182727446" style="stroke:#3333ff; stroke-width: 1.5" />
<line x1="439.47452892321957" x2="443.8814688100463" y1="-31.68336182727446" y2="-33.48507430787448" style="stroke:#3333ff; stroke-width: 1.5" />
<line x1="443.8814688100463" x2="448.22740012648956" y1="-33.48507430787448" y2="-35.36174461225212" style="stroke:#3333ff; stroke-width: 1.5" />
<line x1="448.22740012648956" x2="452.51400468267974" y1="-35.36174461225212" y2="-37.3154035055853" style="stroke:#3333ff; stroke-width: 1.5" />
<line x1="452.51400468267974" x2="456.7428955292459" y1="-37.3154035055853" y2="-39.34810851593362" style="stroke:#3333ff; stroke-width: 1.5" />
<line x1="456.7428955292459" x2="460.91562028931185" y1="-39.34810851593362" y2="-41.46194374912253" style="stroke:#3333ff; stroke-width: 1.5" />
<line x1="460.91562028931185" x2="465.03366472474045" y1="-41.46194374912253" y2="-43.65901990590161" style="stroke:#3333ff; stroke-width: 1.5" />
<line x1="465.03366472474045" x2="469.09845629415224" y1="-43.65901990590161" y2="-45.94147443818688" style="stroke:#3333ff; stroke-width: 1.5" />
<line x1="469.09845629415224" x2="473.1113667624583" y1="-45.94147443818688" y2="-48.31147131183016" style="stroke:#3333ff; stroke-width: 1.5" />
<line x1="473.1113667624583" x2="477.0737151721885" y1="-48.31147131183016" y2="-50.77120104773705" style="stroke:#3333ff; stroke-width: 1.5" />
<line x1="477.0737151721885" x2="480.9867707076115" y1="-50.77120104773705" y2="-53.322880832190236" style="stroke:#3333ff; stroke-width: 1.5" />
<line x1="480.9867707076115" x2="484.85175504125027" y1="-53.322880832190236" y2="-55.96875441891494" style="stroke:#3333ff; stroke-width: 1.5" />
<line x1="484.85175504125027" x2="488.66984498037925" y1="-55.96875441891494" y2="-58.71109233590294" style="stroke:#3333ff; stroke-width: 1.5" />
<line x1="488.66984498037925" x2="492.4421742006877" y1="-58.71109233590294" y2="-61.552191562266714" style="stroke:#3333ff; stroke-width: 1.5" />
<line x1="492.4421742006877" x2="496.1698353057364" y1="-61.552191562266714" y2="-64.4943754771544" style="stroke:#3333ff; stroke-width: 1.5" />
<line x1="496.1698353057364" x2="499.8538824615896" y1="-64.4943754771544" y2="-67.53999439341064" style="stroke:#3333ff; stroke-width: 1.5" />
<line x1="499.8538824615896" x2="503.4953325987848" y1="-67.53999439341064" y2="-70.69142508290183" style="stroke:#3333ff; stroke-width: 1.5" />
<line x1="503.4953325987848" x2="507.0951670715714" y1="-70.69142508290183" y2="-73.95107067962206" style="stroke:#3333ff; stroke-width: 1.5" />
<line x1="507.0951670715714" x2="510.6543338838531" y1="-73.95107067962206" y2="-77.3213612079114" style="stroke:#3333ff; stroke-width: 1.5" />
<line x1="510.6543338838531" x2="514.1737483818712" y1="-77.3213612079114" y2="-80.80475280528283" style="stroke:#3333ff; stroke-width: 1.5" />
<line x1="514.1737483818712" x2="517.6542956600896" y1="-80.80475280528283" y2="-84.4037286280023" style="stroke:#3333ff; stroke-width: 1.5" />
<line x1="517.6542956600896" x2="521.0968313026011" y1="-84.4037286280023" y2="-88.12079826661679" style="stroke:#3333ff; stroke-width: 1.5" />
<line x1="521.0968313026011" x2="524.5021827316652" y1="-88.12079826661679" y2="-91.95849777815984" style="stroke:#3333ff; stroke-width: 1.5" />
<line x1="524.5021827316652" x2="527.8711506193512" y1="-91.95849777815984" y2="-95.91938989278668" style="stroke:#3333ff; stroke-width: 1.5" />
<line x1="527.8711506193512" x2="531.2045096874483" y1="-95.91938989278668" y2="-100.00606359389342" style="stroke:#3333ff; stroke-width: 1.5" />
<line x1="531.2045096874483" x2="534.5030101296162" y1="-100.00606359389342" y2="-104.22113448080908" style="stroke:#3333ff; stroke-width: 1.5" />
<line x1="534.5030101296162" x2="537.7673788552945" y1="-104.22113448080908" y2="-108.56724506908137" style="stroke:#3333ff; stroke-width: 1.5" />
<line x1="537.7673788552945" x2="540.998319648698" y1="-108.56724506908137" y2="-113.04706370453782" style="stroke:#3333ff; stroke-width: 1.5" />
<line x1="540.998319648698" x2="544.1965156126892" y1="-113.04706370453782" y2="-117.66328663912506" style="stroke:#3333ff; stroke-width: 1.5" />
<line x1="544.1965156126892" x2="547.3626277008157" y1="-117.66328663912506" y2="-122.41863471332422" style="stroke:#3333ff; stroke-width: 1.5" />
<line x1="547.3626277008157" x2="550.4972979154497" y1="-122.41863471332422" y2="-127.31585670575802" style="stroke:#3333ff; stroke-width: 1.5" />
<line x1="550.4972979154497" x2="553.601148770849" y1="-127.31585670575802" y2="-132.35772742241718" style="stroke:#3333ff; stroke-width: 1.5" />
<line x1="553.601148770849" x2="556.6747847056795" y1="-132.35772742241718" y2="-137.547048716902" style="stroke:#3333ff; stroke-width: 1.5" />
<line x1="556.6747847056795" x2="559.7187915811792" y1="-137.547048716902" y2="-142.88664740796335" style="stroke:#3333ff; stroke-width: 1.5" />
<line x1="559.7187915811792" x2="562.7337391794551" y1="-142.88664740796335" y2="-148.3793783371873" style="stroke:#3333ff; stroke-width: 1.5" />
<line x1="562.7337391794551" x2="565.7201811789143" y1="-148.3793783371873" y2="-154.02812337067897" style="stroke:#3333ff; stroke-width: 1.5" />
<line x1="565.7201811789143" x2="568.6786546028873" y1="-154.02812337067897" y2="-159.83578914145738" style="stroke:#3333ff; stroke-width: 1.5" />
<line x1="568.6786546028873" x2="571.6096817398262" y1="-159.83578914145738" y2="-165.80530946161883" style="stroke:#3333ff; stroke-width: 1.5" />
<line x1="571.6096817398262" x2="574.5137702666518" y1="-165.80530946161883" y2="-171.9396445117928" style="stroke:#3333ff; stroke-width: 1.5" />
<line x1="574.5137702666518" x2="577.3914139228235" y1="-171.9396445117928" y2="-178.24178112043654" style="stroke:#3333ff; stroke-width: 1.5" />
<line x1="577.3914139228235" x2="580.2430931724224" y1="-178.24178112043654" y2="-184.71473313692263" style="stroke:#3333ff; stroke-width: 1.5" />
<line x1="580.2430931724224" x2="583.0692749817961" y1="-184.71473313692263" y2="-191.3615398203617" style="stroke:#3333ff; stroke-width: 1.5" />
<line x1="583.0692749817961" x2="585.870414631316" y1="-191.3615398203617" y2="-198.18526896885382" style="stroke:#3333ff; stroke-width: 1.5" />
<line x1="585.870414631316" x2="588.6469544819047" y1="-198.18526896885382" y2="-205.18901297674353" style="stroke:#3333ff; stroke-width: 1.5" />
<line x1="588.6469544819047" x2="591.3993250562949" y1="-205.18901297674353" y2="-212.37589021685923" style="stroke:#3333ff; stroke-width: 1.5" />
<line x1="591.3993250562949" x2="594.127946032106" y1="-212.37589021685923" y2="-219.74904656560093" style="stroke:#3333ff; stroke-width: 1.5" />
<line x1="594.127946032106" x2="596.8332264284369" y1="-219.74904656560093" y2="-227.3116550113629" style="stroke:#3333ff; stroke-width: 1.5" />
<line x1="596.8332264284369" x2="599.5155637913693" y1="-227.3116550113629" y2="-235.06691226558726" style="stroke:#3333ff; stroke-width: 1.5" />
<line x1="599.5155637913693" x2="602.1753473681977" y1="-235.06691226558726" y2="-243.018046844976" style="stroke:#3333ff; stroke-width: 1.5" />
<line x1="602.1753473681977" x2="604.8129547200479" y1="-243.018046844976" y2="-251.16830827532226" style="stroke:#3333ff; stroke-width: 1.5" />
<line x1="604.8129547200479" x2="607.4287541488493" y1="-251.16830827532226" y2="-259.52097294619745" style="stroke:#3333ff; stroke-width: 1.5" />
<line x1="607.4287541488493" x2="610.0231066620975" y1="-259.52097294619745" y2="-268.07934973724895" style="stroke:#3333ff; stroke-width: 1.5" />
<line x1="610.0231066620975" x2="612.5963621250027" y1="-268.07934973724895" y2="-276.84676665780717" style="stroke:#3333ff; stroke-width: 1.5" />
<line x1="612.5963621250027" x2="615.1488632182318" y1="-276.84676665780717" y2="-285.82658271070073" style="stroke:#3333ff; stroke-width: 1.5" />
<line x1="615.1488632182318" x2="617.6809437106277" y1="-285.82658271070073" y2="-295.02218126375203" style="stroke:#3333ff; stroke-width: 1.5" />
<line x1="617.6809437106277" x2="620.1929294612041" y1="-295.02218126375203" y2="-304.43697249490896" style="stroke:#3333ff; stroke-width: 1.5" />
<line x1="620.1929294612041" x2="622.6851386138902" y1="-304.43697249490896" y2="-314.074393214827" style="stroke:#3333ff; stroke-width: 1.5" />
<line x1="622.6851386138902" x2="625.1578821890417" y1="-314.074393214827" y2="-323.93790829734775" style="stroke:#3333ff; stroke-width: 1.5" />
<line x1="625.1578821890417" x2="627.6114634180881" y1="-323.93790829734775" y2="-334.0310071644662" style="stroke:#3333ff; stroke-width: 1.5" />
<line x1="627.6114634180881" x2="630.04617796743" y1="-334.0310071644662" y2="-344.35720345956764" style="stroke:#3333ff; stroke-width: 1.5" />
<line x1="630.04617796743" x2="632.4623163171709" y1="-344.35720345956764" y2="-354.9200442988729" style="stroke:#3333ff; stroke-width: 1.5" />
<line x1="632.4623163171709" x2="634.8601604105861" y1="-354.9200442988729" y2="-365.7230950881396" style="stroke:#3333ff; stroke-width: 1.5" />
<line x1="634.8601604105861" x2="637.2399865001404" y1="-365.7230950881396" y2="-376.7699506960586" style="stroke:#3333ff; stroke-width: 1.5" />
<line x1="637.2399865001404" x2="639.6020655278049" y1="-376.7699506960586" y2="-388.06423685258767" style="stroke:#3333ff; stroke-width: 1.5" />
<line x1="639.6020655278049" x2="640" y1="-388.06423685258767" y2="-390" style="stroke:#3333ff; stroke-width: 1.5" />
<line y1="-5.25" y2="5.25" x1="0" x2="0" style="stroke:black; stroke-width: 1" />
<text y="33.75" x="0" font-size="12" text-anchor="middle" dominant-baseline="middle">0</text>
<line y1="-5.25" y2="5.25" x1="40" x2="40" style="stroke:black; stroke-width: 1" />
<text y="33.75" x="40" font-size="12" text-anchor="middle" dominant-baseline="middle">0.5</text>
<line y1="-5.25" y2="5.25" x1="80" x2="80" style="stroke:black; stroke-width: 1" />
<text y="33.75" x="80" font-size="12" text-anchor="middle" dominant-baseline="middle">1</text>
<line y1="-5.25" y2="5.25" x1="120" x2="120" style="stroke:black; stroke-width: 1" />
<text y="33.75" x="120" font-size="12" text-anchor="middle" dominant-baseline="middle">1.5</text>
<line y1="-5.25" y2="5.25" x1="160" x2="160" style="stroke:black; stroke-width: 1" />
<text y="33.75" x="160" font-size="12" text-anchor="middle" dominant-baseline="middle">2</text>
<line y1="-5.25" y2="5.25" x1="200" x2="200" style="stroke:black; stroke-width: 1" />
<text y="33.75" x="200" font-size="12" text-anchor="middle" dominant-baseline="middle">2.5</text>
<line y1="-5.25" y2="5.25" x1="240" x2="240" style="stroke:black; stroke-width: 1" />
<text y="33.75" x="240" font-size="12" text-anchor="middle" dominant-baseline="middle">3</text>
<line y1="-5.25" y2="5.25" x1="280" x2="280" style="stroke:black; stroke-width: 1" />
<text y="33.75" x="280" font-size="12" text-anchor="middle" dominant-baseline="middle">3.5</text>
<line y1="-5.25" y2="5.25" x1="320" x2="320" style="stroke:black; stroke-width: 1" />
<text y="33.75" x="320" font-size="12" text-anchor="middle" dominant-baseline="middle">4</text>
<line y1="-5.25" y2="5.25" x1="360" x2="360" style="stroke:black; stroke-width: 1" />
<text y="33.75" x="360" font-size="12" text-anchor="middle" dominant-baseline="middle">4.5</text>
<line y1="-5.25" y2="5.25" x1="400" x2="400" style="stroke:black; stroke-width: 1" />
<text y="33.75" x="400" font-size="12" text-anchor="middle" dominant-baseline="middle">5</text>
<line y1="-5.25" y2="5.25" x1="440" x2="440" style="stroke:black; stroke-width: 1" />
<text y="33.75" x="440" font-size="12" text-anchor="middle" dominant-baseline="middle">5.5</text>
<line y1="-5.25" y2="5.25" x1="480" x2="480" style="stroke:black; stroke-width: 1" />
<text y="33.75" x="480" font-size="12" text-anchor="middle" dominant-baseline="middle">6</text>
<line y1="-5.25" y2="5.25" x1="520" x2="520" style="stroke:black; stroke-width: 1" />
<text y="33.75" x="520" font-size="12" text-anchor="middle" dominant-baseline="middle">6.5</text>
<line y1="-5.25" y2="5.25" x1="560" x2="560" style="stroke:black; stroke-width: 1" />
<text y="33.75" x="560" font-size="12" text-anchor="middle" dominant-baseline="middle">7</text>
<line y1="-5.25" y2="5.25" x1="600" x2="600" style="stroke:black; stroke-width: 1" />
<text y="33.75" x="600" font-size="12" text-anchor="middle" dominant-baseline="middle">7.5</text>
<line y1="-5.25" y2="5.25" x1="640" x2="640" style="stroke:black; stroke-width: 1" />
<text y="33.75" x="640" font-size="12" text-anchor="middle" dominant-baseline="middle">8</text>
<line x1="-5.25" x2="5.25" y1="0.130876785481649" y2="0.130876785481649" style="stroke:black; stroke-width: 1" />
<text x="-15.75" y="0.130876785481649" font-size="12" text-anchor="end" dominant-baseline="middle">0</text>
<line x1="-5.25" x2="5.25" y1="-21.681920794793182" y2="-21.681920794793182" style="stroke:black; stroke-width: 1" />
<text x="-15.75" y="-21.681920794793182" font-size="12" text-anchor="end" dominant-baseline="middle">500</text>
<line x1="-5.25" x2="5.25" y1="-43.49471837506801" y2="-43.49471837506801" style="stroke:black; stroke-width: 1" />
<text x="-15.75" y="-43.49471837506801" font-size="12" text-anchor="end" dominant-baseline="middle">1000</text>
<line x1="-5.25" x2="5.25" y1="-65.30751595534284" y2="-65.30751595534284" style="stroke:black; stroke-width: 1" />
<text x="-15.75" y="-65.30751595534284" font-size="12" text-anchor="end" dominant-baseline="middle">1500</text>
<line x1="-5.25" x2="5.25" y1="-87.12031353561767" y2="-87.12031353561767" style="stroke:black; stroke-width: 1" />
<text x="-15.75" y="-87.12031353561767" font-size="12" text-anchor="end" dominant-baseline="middle">2000</text>
<line x1="-5.25" x2="5.25" y1="-108.9331111158925" y2="-108.9331111158925" style="stroke:black; stroke-width: 1" />
<text x="-15.75" y="-108.9331111158925" font-size="12" text-anchor="end" dominant-baseline="middle">2500</text>
<line x1="-5.25" x2="5.25" y1="-130.74590869616733" y2="-130.74590869616733" style="stroke:black; stroke-width: 1" />
<text x="-15.75" y="-130.74590869616733" font-size="12" text-anchor="end" dominant-baseline="middle">3000</text>
<line x1="-5.25" x2="5.25" y1="-152.55870627644217" y2="-152.55870627644217" style="stroke:black; stroke-width: 1" />
<text x="-15.75" y="-152.55870627644217" font-size="12" text-anchor="end" dominant-baseline="middle">3500</text>
<line x1="-5.25" x2="5.25" y1="-174.371503856717" y2="-174.371503856717" style="stroke:black; stroke-width: 1" />
<text x="-15.75" y="-174.371503856717" font-size="12" text-anchor="end" dominant-baseline="middle">4000</text>
<line x1="-5.25" x2="5.25" y1="-196.18430143699183" y2="-196.18430143699183" style="stroke:black; stroke-width: 1" />
<text x="-15.75" y="-196.18430143699183" font-size="12" text-anchor="end" dominant-baseline="middle">4500</text>
<line x1="-5.25" x2="5.25" y1="-217.99709901726666" y2="-217.99709901726666" style="stroke:black; stroke-width: 1" />
<text x="-15.75" y="-217.99709901726666" font-size="12" text-anchor="end" dominant-baseline="middle">5000</text>
<line x1="-5.25" x2="5.25" y1="-239.80989659754147" y2="-239.80989659754147" style="stroke:black; stroke-width: 1" />
<text x="-15.75" y="-239.80989659754147" font-size="12" text-anchor="end" dominant-baseline="middle">5500</text>
<line x1="-5.25" x2="5.25" y1="-261.6226941778163" y2="-261.6226941778163" style="stroke:black; stroke-width: 1" />
<text x="-15.75" y="-261.6226941778163" font-size="12" text-anchor="end" dominant-baseline="middle">6000</text>
<line x1="-5.25" x2="5.25" y1="-283.43549175809113" y2="-283.43549175809113" style="stroke:black; stroke-width: 1" />
<text x="-15.75" y="-283.43549175809113" font-size="12" text-anchor="end" dominant-baseline="middle">6500</text>
<line x1="-5.25" x2="5.25" y1="-305.24828933836596" y2="-305.24828933836596" style="stroke:black; stroke-width: 1" />
<text x="-15.75" y="-305.24828933836596" font-size="12" text-anchor="end" dominant-baseline="middle">7000</text>
<line x1="-5.25" x2="5.25" y1="-327.0610869186408" y2="-327.0610869186408" style="stroke:black; stroke-width: 1" />
<text x="-15.75" y="-327.0610869186408" font-size="12" text-anchor="end" dominant-baseline="middle">7500</text>
<line x1="-5.25" x2="5.25" y1="-348.87388449891563" y2="-348.87388449891563" style="stroke:black; stroke-width: 1" />
<text x="-15.75" y="-348.87388449891563" font-size="12" text-anchor="end" dominant-baseline="middle">8000</text>
<line x1="-5.25" x2="5.25" y1="-370.68668207919046" y2="-370.68668207919046" style="stroke:black; stroke-width: 1" />
<text x="-15.75" y="-370.68668207919046" font-size="12" text-anchor="end" dominant-baseline="middle">8500</text>
<line x1="0" y1="0" x2="640" y2="0" style="stroke:black; stroke-width: 2" />
<line x1="0" y1="0" x2="0" y2="-390" style="stroke:black; stroke-width: 2" />
<text x="400" y="-411" text-anchor="middle">population growth</text></g>
</svg>

