<svg xmlns="http://www.w3.org/2000/svg" xmlns:svg="http://www.w3.org/2000/svg" xmlns:xlink="http://www.w3.org/1999/xlink" width="800" height="600"><g transform="translate(128,463.5)"><line x1="0" x2="17.926796778135024" y1="0" y2="-2.9493760127269937" style="stroke:#3333ff; stroke-width: 1.5" />
<line x1="17.926796778135024" x2="35.88339586605376" y1="-2.9493760127269937" y2="-6.584677695621045" style="stroke:#3333ff; stroke-width: 1.5" />
<line x1="35.88339586605376" x2="53.10825851765752" y1="-6.584677695621045" y2="-10.841132147408912" style="stroke:#3333ff; stroke-width: 1.5" />
<line x1="53.10825851765752" x2="69.68608100253925" y1="-10.841132147408912" y2="-15.78067404676856" style="stroke:#3333ff; stroke-width: 1.5" />
<line x1="69.68608100253925" x2="85.72666260854929" y1="-15.78067404676856" y2="-21.477753284999572" style="stroke:#3333ff; stroke-width: 1.5" />
<line x1="85.72666260854929" x2="101.33254799983311" y1="-21.477753284999572" y2="-28.013810156166016" style="stroke:#3333ff; stroke-width: 1.5" />
<line x1="101.33254799983311" x2="116.60098921488414" y1="-28.013810156166016" y2="-35.47789014011821" style="stroke:#3333ff; stroke-width: 1.5" />
<line x1="116.60098921488414" x2="131.62704991680602" y1="-35.47789014011821" y2="-43.967710959361256" style="stroke:#3333ff; stroke-width: 1.5" />
<line x1="131.62704991680602" x2="146.5067677696792" y1="-43.967710959361256" y2="-53.590893195638984" style="stroke:#3333ff; stroke-width: 1.5" />
<line x1="146.5067677696792" x2="161.34059832946915" y1="-53.590893195638984" y2="-64.46630702941054" style="stroke:#3333ff; stroke-width: 1.5" />
<line x1="161.34059832946915" x2="176.23744647847133" y1="-64.46630702941054" y2="-76.72542164399003" style="stroke:#3333ff; stroke-width: 1.5" />
<line x1="176.23744647847133" x2="191.31964192415444" y1="-76.72542164399003" y2="-90.5133495828387" style="stroke:#3333ff; stroke-width: 1.5" />
<line x1="191.31964192415444" x2="206.72920236944782" y1="-90.5133495828387" y2="-105.9887674558202" style="stroke:#3333ff; stroke-width: 1.5" />
<line x1="206.72920236944782" x2="222.63534403729676" y1="-105.9887674558202" y2="-123.32046118470541" style="stroke:#3333ff; stroke-width: 1.5" />
<line x1="222.63534403729676" x2="239.24124930875672" y1="-123.32046118470541" y2="-142.67395980644864" style="stroke:#3333ff; stroke-width: 1.5" />
<line x1="239.24124930875672" x2="256.78015615016193" y1="-142.67395980644864" y2="-164.16846649517888" style="stroke:#3333ff; stroke-width: 1.5" />
<line x1="256.78015615016193" x2="275.46257976573804" y1="-164.16846649517888" y2="-187.7457726128575" style="stroke:#3333ff; stroke-width: 1.5" />
<line x1="275.46257976573804" x2="295.26692159373346" y1="-187.7457726128575" y2="-212.823350444986" style="stroke:#3333ff; stroke-width: 1.5" />
<line x1="295.26692159373346" x2="315.5142647467857" y1="-212.823350444986" y2="-237.78239601695714" style="stroke:#3333ff; stroke-width: 1.5" />
<line x1="315.5142647467857" x2="334.9584702179916" y1="-237.78239601695714" y2="-260.43845436254946" style="stroke:#3333ff; stroke-width: 1.5" />
<line x1="334.9584702179916" x2="352.9288769272233" y1="-260.43845436254946" y2="-279.78924751505207" style="stroke:#3333ff; stroke-width: 1.5" />
<line x1="352.9288769272233" x2="369.5937394330071" y1="-279.78924751505207" y2="-296.12842869750034" style="stroke:#3333ff; stroke-width: 1.5" />
<line x1="369.5937394330071" x2="385.34202094482066" y1="-296.12842869750034" y2="-310.0411580583257" style="stroke:#3333ff; stroke-width: 1.5" />
<line x1="385.34202094482066" x2="400.49179119467055" y1="-310.0411580583257" y2="-321.99912762817735" style="stroke:#3333ff; stroke-width: 1.5" />
<line x1="400.49179119467055" x2="415.2720297979804" y1="-321.99912762817735" y2="-332.3440091772347" style="stroke:#3333ff; stroke-width: 1.5" />
<line x1="415.2720297979804" x2="429.8516697547327" y1="-332.3440091772347" y2="-341.328660868287" style="stroke:#3333ff; stroke-width: 1.5" />
<line x1="429.8516697547327" x2="444.36205738790227" y1="-341.328660868287" y2="-349.14760951446954" style="stroke:#3333ff; stroke-width: 1.5" />
<line x1="444.36205738790227" x2="458.9109385039592" y1="-349.14760951446954" y2="-355.95581569591377" style="stroke:#3333ff; stroke-width: 1.5" />
<line x1="458.9109385039592" x2="473.59121541201876" y1="-355.95581569591377" y2="-361.8802957827406" style="stroke:#3333ff; stroke-width: 1.5" />
<line x1="473.59121541201876" x2="488.4866977886114" y1="-361.8802957827406" y2="-367.0275827616669" style="stroke:#3333ff; stroke-width: 1.5" />
<line x1="488.4866977886114" x2="503.676116103575" y1="-367.0275827616669" y2="-371.48870058167086" style="stroke:#3333ff; stroke-width: 1.5" />
<line x1="503.676116103575" x2="519.2361243061566" y1="-371.48870058167086" y2="-375.342595883352" style="stroke:#3333ff; stroke-width: 1.5" />
<line x1="519.2361243061566" x2="535.243727302427" y1="-375.342595883352" y2="-378.6585760926388" style="stroke:#3333ff; stroke-width: 1.5" />
<line x1="535.243727302427" x2="551.7784131658257" y1="-378.6585760926388" y2="-381.4980851625109" style="stroke:#3333ff; stroke-width: 1.5" />
<line x1="551.7784131658257" x2="568.9241872156266" y1="-381.4980851625109" y2="-383.9160239732859" style="stroke:#3333ff; stroke-width: 1.5" />
<line x1="568.9241872156266" x2="586.7716656366676" y1="-383.9160239732859" y2="-385.9617492137783" style="stroke:#3333ff; stroke-width: 1.5" />
<line x1="586.7716656366676" x2="605.4203730603205" y1="-385.9617492137783" y2="-387.67983973684136" style="stroke:#3333ff; stroke-width: 1.5" />
<line x1="605.4203730603205" x2="624.9813970910112" y1="-387.67983973684136" y2="-389.1106913412199" style="stroke:#3333ff; stroke-width: 1.5" />
<line x1="624.9813970910112" x2="640" y1="-389.1106913412199" y2="-390" style="stroke:#3333ff; stroke-width: 1.5" />
<line y1="-5.25" y2="5.25" x1="0" x2="0" style="stroke:black; stroke-width: 1" />
<text y="33.75" x="0" font-size="12" text-anchor="middle" dominant-baseline="middle">0</text>
<line y1="-5.25" y2="5.25" x1="40" x2="40" style="stroke:black; stroke-width: 1" />
<text y="33.75" x="40" font-size="12" text-anchor="middle" dominant-baseline="middle">0.5</text>
<line y1="-5.25" y2="5.25" x1="80" x2="80" style="stroke:black; stroke-width: 1" />
<text y="33.75" x="80" font-size="12" text-anchor="middle" dominant-baseline="middle">1</text>
<line y1="-5.25" y2="5.25" x1="120" x2="120" style="stroke:black; stroke-width: 1" />
<text y="33.75" x="120" font-size="12" text-anchor="middle" dominant-baseline="middle">1.5</text>
<line y1="-5.25" y2="5.25" x1="160" x2="160" style="stroke:black; stroke-width: 1" />
<text y="33.75" x="160" font-size="12" text-anchor="middle" dominant-baseline="middle">2</text>
<line y1="-5.25" y2="5.25" x1="200" x2="200" style="stroke:black; stroke-width: 1" />
<text y="33.75" x="200" font-size="12" text-anchor="middle" dominant-baseline="middle">2.5</text>
<line y1="-5.25" y2="5.25" x1="240" x2="240" style="stroke:black; stroke-width: 1" />
<text y="33.75" x="240" font-size="12" text-anchor="middle" dominant-baseline="middle">3</text>
<line y1="-5.25" y2="5.25" x1="280" x2="280" style="stroke:black; stroke-width: 1" />
<text y="33.75" x="280" font-size="12" text-anchor="middle" dominant-baseline="middle">3.5</text>
<line y1="-5.25" y2="5.25" x1="320" x2="320" style="stroke:black; stroke-width: 1" />
<text y="33.75" x="320" font-size="12" text-anchor="middle" dominant-baseline="middle">4</text>
<line y1="-5.25" y2="5.25" x1="360" x2="360" style="stroke:black; stroke-width: 1" />
<text y="33.75" x="360" font-size="12" text-anchor="middle" dominant-baseline="middle">4.5</text>
<line y1="-5.25" y2="5.25" x1="400" x2="400" style="stroke:black; stroke-width: 1" />
<text y="33.75" x="400" font-size="12" text-anchor="middle" dominant-baseline="middle">5</text>
<line y1="-5.25" y2="5.25" x1="440" x2="440" style="stroke:black; stroke-width: 1" />
<text y="33.75" x="440" font-size="12" text-anchor="middle" dominant-baseline="middle">5.5</text>
<line y1="-5.25" y2="5.25" x1="480" x2="480" style="stroke:black; stroke-width: 1" />
<text y="33.75" x="480" font-size="12" text-anchor="middle" dominant-baseline="middle">6</text>
<line y1="-5.25" y2="5.25" x1="520" x2="520" style="stroke:black; stroke-width: 1" />
<text y="33.75" x="520" font-size="12" text-anchor="middle" dominant-baseline="middle">6.5</text>
<line y1="-5.25" y2="5.25" x1="560" x2="560" style="stroke:black; stroke-width: 1" />
<text y="33.75" x="560" font-size="12" text-anchor="middle" dominant-baseline="middle">7</text>
<line y1="-5.25" y2="5.25" x1="600" x2="600" style="stroke:black; stroke-width: 1" />
<text y="33.75" x="600" font-size="12" text-anchor="middle" dominant-baseline="middle">7.5</text>
<line y1="-5.25" y2="5.25" x1="640" x2="640" style="stroke:black; stroke-width: 1" />
<text y="33.75" x="640" font-size="12" text-anchor="middle" dominant-baseline="middle">8</text>
<line x1="-5.25" x2="5.25" y1="12.196786647400584" y2="12.196786647400584" style="stroke:black; stroke-width: 1" />
<text x="-15.75" y="12.196786647400584" font-size="12" text-anchor="end" dominant-baseline="middle">0</text>
<line x1="-5.25" x2="5.25" y1="-8.131191098267056" y2="-8.131191098267056" style="stroke:black; stroke-width: 1" />
<text x="-15.75" y="-8.131191098267056" font-size="12" text-anchor="end" dominant-baseline="middle">5</text>
<line x1="-5.25" x2="5.25" y1="-28.459168843934698" y2="-28.459168843934698" style="stroke:black; stroke-width: 1" />
<text x="-15.75" y="-28.459168843934698" font-size="12" text-anchor="end" dominant-baseline="middle">10</text>
<line x1="-5.25" x2="5.25" y1="-48.78714658960234" y2="-48.78714658960234" style="stroke:black; stroke-width: 1" />
<text x="-15.75" y="-48.78714658960234" font-size="12" text-anchor="end" dominant-baseline="middle">15</text>
<line x1="-5.25" x2="5.25" y1="-69.11512433526998" y2="-69.11512433526998" style="stroke:black; stroke-width: 1" />
<text x="-15.75" y="-69.11512433526998" font-size="12" text-anchor="end" dominant-baseline="middle">20</text>
<line x1="-5.25" x2="5.25" y1="-89.44310208093762" y2="-89.44310208093762" style="stroke:black; stroke-width: 1" />
<text x="-15.75" y="-89.44310208093762" font-size="12" text-anchor="end" dominant-baseline="middle">25</text>
<line x1="-5.25" x2="5.25" y1="-109.77107982660526" y2="-109.77107982660526" style="stroke:black; stroke-width: 1" />
<text x="-15.75" y="-109.77107982660526" font-size="12" text-anchor="end" dominant-baseline="middle">30</text>
<line x1="-5.25" x2="5.25" y1="-130.0990575722729" y2="-130.0990575722729" style="stroke:black; stroke-width: 1" />
<text x="-15.75" y="-130.0990575722729" font-size="12" text-anchor="end" dominant-baseline="middle">35</text>
<line x1="-5.25" x2="5.25" y1="-150.42703531794055" y2="-150.42703531794055" style="stroke:black; stroke-width: 1" />
<text x="-15.75" y="-150.42703531794055" font-size="12" text-anchor="end" dominant-baseline="middle">40</text>
<line x1="-5.25" x2="5.25" y1="-170.75501306360817" y2="-170.75501306360817" style="stroke:black; stroke-width: 1" />
<text x="-15.75" y="-170.75501306360817" font-size="12" text-anchor="end" dominant-baseline="middle">45</text>
<line x1="-5.25" x2="5.25" y1="-191.08299080927583" y2="-191.08299080927583" style="stroke:black; stroke-width: 1" />
<text x="-15.75" y="-191.08299080927583" font-size="12" text-anchor="end" dominant-baseline="middle">50</text>
<line x1="-5.25" x2="5.25" y1="-211.41096855494345" y2="-211.41096855494345" style="stroke:black; stroke-width: 1" />
<text x="-15.75" y="-211.41096855494345" font-size="12" text-anchor="end" dominant-baseline="middle">55</text>
<line x1="-5.25" x2="5.25" y1="-231.7389463006111" y2="-231.7389463006111" style="stroke:black; stroke-width: 1" />
<text x="-15.75" y="-231.7389463006111" font-size="12" text-anchor="end" dominant-baseline="middle">60</text>
<line x1="-5.25" x2="5.25" y1="-252.06692404627873" y2="-252.06692404627873" style="stroke:black; stroke-width: 1" />
<text x="-15.75" y="-252.06692404627873" font-size="12" text-anchor="end" dominant-baseline="middle">65</text>
<line x1="-5.25" x2="5.25" y1="-272.3949017919464" y2="-272.3949017919464" style="stroke:black; stroke-width: 1" />
<text x="-15.75" y="-272.3949017919464" font-size="12" text-anchor="end" dominant-baseline="middle">70</text>
<line x1="-5.25" x2="5.25" y1="-292.722879537614" y2="-292.722879537614" style="stroke:black; stroke-width: 1" />
<text x="-15.75" y="-292.722879537614" font-size="12" text-anchor="end" dominant-baseline="middle">75</text>
<line x1="-5.25" x2="5.25" y1="-313.0508572832817" y2="-313.0508572832817" style="stroke:black; stroke-width: 1" />
<text x="-15.75" y="-313.0508572832817" font-size="12" text-anchor="end" dominant-baseline="middle">80</text>
<line x1="-5.25" x2="5.25" y1="-333.3788350289493" y2="-333.3788350289493" style="stroke:black; stroke-width: 1" />
<text x="-15.75" y="-333.3788350289493" font-size="12" text-anchor="end" dominant-baseline="middle">85</text>
<line x1="-5.25" x2="5.25" y1="-353.70681277461694" y2="-353.70681277461694" style="stroke:black; stroke-width: 1" />
<text x="-15.75" y="-353.70681277461694" font-size="12" text-anchor="end" dominant-baseline="middle">90</text>
<line x1="-5.25" x2="5.25" y1="-374.03479052028456" y2="-374.03479052028456" style="stroke:black; stroke-width: 1" />
<text x="-15.75" y="-374.03479052028456" font-size="12" text-anchor="end" dominant-baseline="middle">95</text>
<line x1="0" y1="0" x2="640" y2="0" style="stroke:black; stroke-width: 2" />
<line x1="0" y1="0" x2="0" y2="-390" style="stroke:black; stroke-width: 2" />
<text x="400" y="-411" text-anchor="middle">population growth</text></g>
</svg>

